<mxfile host="app.diagrams.net" modified="2023-12-28T04:28:16.989Z" agent="Mozilla/5.0 (Windows NT 10.0; Win64; x64) AppleWebKit/537.36 (KHTML, like Gecko) Chrome/120.0.0.0 Safari/537.36" etag="X2KssKgQBXVPE3g943wW" version="22.1.15" type="github">
  <diagram name="Page-1" id="VGPZeb_OmL5XRQxWQFNp">
    <mxGraphModel dx="1050" dy="522" grid="1" gridSize="10" guides="1" tooltips="1" connect="1" arrows="1" fold="1" page="1" pageScale="1" pageWidth="827" pageHeight="1169" math="0" shadow="0">
      <root>
        <mxCell id="0" />
        <mxCell id="1" parent="0" />
        <mxCell id="wCbvZS7oSH-rzxcTooCT-1" style="edgeStyle=orthogonalEdgeStyle;rounded=0;orthogonalLoop=1;jettySize=auto;html=1;exitX=0.5;exitY=1;exitDx=0;exitDy=0;entryX=0.5;entryY=0;entryDx=0;entryDy=0;" edge="1" parent="1" source="wCbvZS7oSH-rzxcTooCT-2" target="wCbvZS7oSH-rzxcTooCT-3">
          <mxGeometry relative="1" as="geometry" />
        </mxCell>
        <mxCell id="wCbvZS7oSH-rzxcTooCT-2" value="Capex Box Target Location&lt;br&gt;&lt;i&gt;(Actual Data Only)&lt;/i&gt;" style="rounded=0;whiteSpace=wrap;html=1;" vertex="1" parent="1">
          <mxGeometry x="324" y="50" width="180" height="60" as="geometry" />
        </mxCell>
        <mxCell id="wCbvZS7oSH-rzxcTooCT-3" value="UDS_Table_for_capex_data" style="rounded=0;whiteSpace=wrap;html=1;" vertex="1" parent="1">
          <mxGeometry x="329" y="170" width="170" height="50" as="geometry" />
        </mxCell>
        <mxCell id="wCbvZS7oSH-rzxcTooCT-4" style="edgeStyle=orthogonalEdgeStyle;rounded=0;orthogonalLoop=1;jettySize=auto;html=1;exitX=0.5;exitY=1;exitDx=0;exitDy=0;entryX=0.5;entryY=0;entryDx=0;entryDy=0;" edge="1" parent="1" source="wCbvZS7oSH-rzxcTooCT-5" target="wCbvZS7oSH-rzxcTooCT-7">
          <mxGeometry relative="1" as="geometry" />
        </mxCell>
        <mxCell id="wCbvZS7oSH-rzxcTooCT-5" value="Proc_for_capex_data_preparation" style="rounded=0;whiteSpace=wrap;html=1;" vertex="1" parent="1">
          <mxGeometry x="320" y="310" width="201" height="50" as="geometry" />
        </mxCell>
        <mxCell id="wCbvZS7oSH-rzxcTooCT-6" style="edgeStyle=orthogonalEdgeStyle;rounded=0;orthogonalLoop=1;jettySize=auto;html=1;exitX=0.5;exitY=1;exitDx=0;exitDy=0;entryX=0.5;entryY=0;entryDx=0;entryDy=0;" edge="1" parent="1" source="wCbvZS7oSH-rzxcTooCT-7" target="wCbvZS7oSH-rzxcTooCT-9">
          <mxGeometry relative="1" as="geometry" />
        </mxCell>
        <mxCell id="wCbvZS7oSH-rzxcTooCT-7" value="Pds_table_for_capex_Data" style="rounded=0;whiteSpace=wrap;html=1;" vertex="1" parent="1">
          <mxGeometry x="320" y="430" width="200" height="50" as="geometry" />
        </mxCell>
        <mxCell id="wCbvZS7oSH-rzxcTooCT-8" style="edgeStyle=orthogonalEdgeStyle;rounded=0;orthogonalLoop=1;jettySize=auto;html=1;exitX=0.5;exitY=1;exitDx=0;exitDy=0;" edge="1" parent="1" source="wCbvZS7oSH-rzxcTooCT-9" target="wCbvZS7oSH-rzxcTooCT-11">
          <mxGeometry relative="1" as="geometry" />
        </mxCell>
        <mxCell id="wCbvZS7oSH-rzxcTooCT-9" value="Proc_to_prepare_capex_Data_for_anaplan_flash_report&lt;br&gt;&lt;i&gt;(Actual Data Only)&lt;br&gt;&lt;/i&gt;" style="rounded=0;whiteSpace=wrap;html=1;" vertex="1" parent="1">
          <mxGeometry x="266" y="555" width="309" height="60" as="geometry" />
        </mxCell>
        <mxCell id="wCbvZS7oSH-rzxcTooCT-10" style="edgeStyle=orthogonalEdgeStyle;rounded=0;orthogonalLoop=1;jettySize=auto;html=1;exitX=0.5;exitY=1;exitDx=0;exitDy=0;" edge="1" parent="1" source="wCbvZS7oSH-rzxcTooCT-11">
          <mxGeometry relative="1" as="geometry">
            <mxPoint x="410" y="810" as="targetPoint" />
          </mxGeometry>
        </mxCell>
        <mxCell id="wCbvZS7oSH-rzxcTooCT-11" value="Pds_table_for_Capex_anaplan_flash_report_data" style="rounded=0;whiteSpace=wrap;html=1;" vertex="1" parent="1">
          <mxGeometry x="480" y="690" width="300" height="60" as="geometry" />
        </mxCell>
        <mxCell id="wCbvZS7oSH-rzxcTooCT-12" style="edgeStyle=orthogonalEdgeStyle;rounded=0;orthogonalLoop=1;jettySize=auto;html=1;exitX=0.5;exitY=1;exitDx=0;exitDy=0;entryX=0.468;entryY=0.016;entryDx=0;entryDy=0;entryPerimeter=0;" edge="1" parent="1" source="wCbvZS7oSH-rzxcTooCT-3" target="wCbvZS7oSH-rzxcTooCT-5">
          <mxGeometry relative="1" as="geometry" />
        </mxCell>
        <mxCell id="wCbvZS7oSH-rzxcTooCT-13" style="edgeStyle=orthogonalEdgeStyle;rounded=0;orthogonalLoop=1;jettySize=auto;html=1;exitX=0.5;exitY=1;exitDx=0;exitDy=0;entryX=0.5;entryY=0;entryDx=0;entryDy=0;" edge="1" parent="1" source="wCbvZS7oSH-rzxcTooCT-14" target="wCbvZS7oSH-rzxcTooCT-16">
          <mxGeometry relative="1" as="geometry" />
        </mxCell>
        <mxCell id="wCbvZS7oSH-rzxcTooCT-14" value="Uds_table_for_Capex_Budget_data" style="rounded=0;whiteSpace=wrap;html=1;" vertex="1" parent="1">
          <mxGeometry x="60" y="700" width="280" height="50" as="geometry" />
        </mxCell>
        <mxCell id="wCbvZS7oSH-rzxcTooCT-15" style="edgeStyle=orthogonalEdgeStyle;rounded=0;orthogonalLoop=1;jettySize=auto;html=1;exitX=0.5;exitY=1;exitDx=0;exitDy=0;entryX=0.5;entryY=0;entryDx=0;entryDy=0;" edge="1" parent="1" source="wCbvZS7oSH-rzxcTooCT-16" target="wCbvZS7oSH-rzxcTooCT-17">
          <mxGeometry relative="1" as="geometry" />
        </mxCell>
        <mxCell id="wCbvZS7oSH-rzxcTooCT-16" value="View for Capex Data for Anaplan_flash_report" style="rounded=0;whiteSpace=wrap;html=1;" vertex="1" parent="1">
          <mxGeometry x="289" y="810" width="250" height="60" as="geometry" />
        </mxCell>
        <mxCell id="wCbvZS7oSH-rzxcTooCT-17" value="Capex_anaplan_flash_report_dataset" style="rounded=0;whiteSpace=wrap;html=1;" vertex="1" parent="1">
          <mxGeometry x="302" y="980" width="224" height="60" as="geometry" />
        </mxCell>
      </root>
    </mxGraphModel>
  </diagram>
</mxfile>
